<?xml version="1.0" encoding="UTF-8" standalone="no"?>
<!DOCTYPE svg PUBLIC "-//W3C//DTD SVG 1.1//EN" "http://www.w3.org/Graphics/SVG/1.1/DTD/svg11.dtd">
<svg width="100%" height="100%" viewBox="0 0 1080 1081" version="1.1" xmlns="http://www.w3.org/2000/svg" xmlns:xlink="http://www.w3.org/1999/xlink" xml:space="preserve" xmlns:serif="http://www.serif.com/" style="fill-rule:evenodd;clip-rule:evenodd;stroke-linejoin:round;stroke-miterlimit:2;">
    <g transform="matrix(1,0,0,1,0,-1405)">
        <g id="Segmented-Logo" serif:id="Segmented Logo" transform="matrix(1,0,0,1,-233.427,1405.66)">
            <rect x="233.427" y="0" width="1080" height="1080" style="fill:none;"/>
            <g transform="matrix(1.88334,0,0,1.88334,-687.717,-447.428)">
                <path d="M750.05,445.338C750.525,443.867 751.999,442.956 753.528,443.193C755.064,443.43 756.197,444.751 756.197,446.305L756.197,446.309C756.238,489.371 756.238,524.278 756.238,524.295L756.238,739.563L756.238,739.568C756.238,744.32 754.225,748.854 750.697,752.045C747.169,755.236 742.455,756.785 737.722,756.308L737.716,756.308C670.466,749.627 611.62,714.375 573.489,662.866C572.95,662.123 572.758,661.182 572.966,660.286C573.174,659.387 573.763,658.623 574.579,658.193C574.586,658.189 574.593,658.186 574.6,658.182C658.038,613.667 721.951,537.288 750.05,445.338Z" style="fill:currentColor;"/>
            </g>
            <g transform="matrix(1.55273,0,0,1.55273,-196.702,-939.472)">
                <path d="M387.905,1098.08C383.123,1100.84 377.434,1101.57 372.109,1100.1C366.786,1098.63 362.273,1095.1 359.58,1090.28C336.937,1049.57 324.022,1002.7 324.022,952.821C324.022,806.178 435.65,685.605 578.57,671.452L578.58,671.452C584.308,670.875 590.012,672.749 594.282,676.611C595.603,677.806 596.749,679.157 597.702,680.624L597.708,680.633C598.159,681.325 598.441,682.113 598.531,682.934C600.001,696.463 600.834,710.182 601.001,724.059C601.002,724.14 601.003,724.22 601.003,724.3C601.004,727.483 601.005,730.751 601.006,734.092C601.006,734.112 601.006,734.132 601.006,734.152C599.265,889.656 513.948,1025.24 387.905,1098.08Z" style="fill:currentColor;"/>
            </g>
            <g transform="matrix(1.15322e-16,1.88334,-1.88334,1.15322e-16,1788.82,-893.179)">
                <path d="M545.69,519.557C540.94,519.552 536.412,517.54 533.226,514.016C530.035,510.488 528.486,505.775 528.962,501.042L528.963,501.036C532.061,469.855 541.301,440.48 555.455,414.14C555.875,413.361 556.714,412.903 557.596,412.971C558.478,413.039 559.237,413.62 559.533,414.454C559.537,414.467 559.542,414.48 559.547,414.493C575.625,458.629 609.076,494.439 651.605,513.661C651.609,513.663 651.613,513.665 651.617,513.666C652.754,514.177 653.407,515.387 653.209,516.617C653.019,517.792 652.099,518.706 650.937,518.896C606.278,519.324 546.783,519.553 545.705,519.557L545.69,519.557Z" style="fill:currentColor;"/>
            </g>
            <g transform="matrix(1,0,0,1,261.391,-130.279)">
                <path d="M559.18,576.208L559.175,576.195C553.866,563.304 552.552,549.115 555.403,535.468C576.44,435.104 645.996,352.48 738.375,313.357C761.5,303.622 788.075,307.089 807.928,322.432L807.934,322.436C901.143,394.347 964.649,502.875 976.889,626.477L976.89,626.492C977.786,635.386 974.875,644.243 968.879,650.873C962.883,657.503 954.362,661.285 945.423,661.285L945.412,661.286C886.348,661.356 776.562,661.356 686.121,661.356C649.734,661.356 614.837,646.901 589.107,621.172C576.125,608.189 566.013,592.872 559.18,576.208Z" style="fill:currentColor;"/>
            </g>
        </g>
    </g>`
</svg>
